<?xml version="1.0" encoding="utf-8"?>
<!-- Generator: Adobe Illustrator 25.2.0, SVG Export Plug-In . SVG Version: 6.00 Build 0)  -->
<svg version="1.1" id="Calque_1" xmlns="http://www.w3.org/2000/svg" xmlns:xlink="http://www.w3.org/1999/xlink" x="0px" y="0px"
	 viewBox="0 0 1200 1200" style="enable-background:new 0 0 1200 1200;" xml:space="preserve">
<style type="text/css">
	.st0{fill:#D6CEBB;}
	.st1{fill:none;}
	.st2{fill:#1D1D1B;}
	.st3{font-family:'ArgakaFashion-Regular';}
	.st4{font-size:100px;}
	.st5{font-family:'BaskOldFace';}
	.st6{font-size:50px;}
	.st7{font-size:140px;}
</style>
<g id="BG">
	<rect x="1" y="0.5" class="st0" width="1200" height="1200"/>
</g>
<line class="st1" x1="970.4" y1="923.3" x2="302.5" y2="921.3"/>
<line class="st1" x1="190.1" y1="960.1" x2="-477.8" y2="958"/>
<g>
	<g>
		<g>
			<rect x="289" y="541" class="st2" width="660.3" height="8.2"/>
			<g>
				<path class="st2" d="M685.1,537.3c9.7,8.1,20,7.7,30.2,1.2c11.4-7.2,21.7-19.8,32.1-29c4.3-3.8,9.9-7.9,15.4-9.7
					c-0.6,13.1,2.2,22.4,6.9,29.5c3.3,4.8,8.9,9.8,14.2,8.1c6.7-2.2,9-11,7.2-18.7c-0.5-2.2-1.1-4.3-1.9-6.3
					c-2.2-5.1-9.1-14.6-16.6-17.4c2.6-3.6,8.5-5.8,13-5.5c5.5,0.4,9,1.5,14.1,4.1c9.7,5.1,18.6,11.7,27,19.4
					c8.7,7.9,17.3,16.2,27.7,20.7c13,5.6,27.1,4.3,38.9-4.7c9.9-7.5,14.4-24.6,10.6-38.1c-3.7-13.3-14-18.5-24.1-13.8
					c-10.1,4.7-13.5,17.9-11.2,26.7c1.4,5.5,4.7,8.2,9,9.5c4.3,1.4,10-2,9.5-8.5c-0.4-5.2-5.5-5.9-8.6-3.8c-4.6,3.1-4-7.7-2.6-10.4
					c3.3-6.5,10.5-9.7,16.8-4.5c5.7,4.7,7.2,18.1,3.9,25.1c-4.8,10.5-10.7,15.7-22.3,17c-12.4,1.4-24-6-34.5-14.3
					c-9.1-7.2-17.1-16.4-26.6-22.7c-11.7-7.8-23.6-13-36.9-8.2c-6.7,2.5-10.3,8.7-11.6,9.4c-4.9-0.3-14.3,4.9-17.8,7.9
					c-6.9,6.1-17.5,16.5-24.5,22.3c-6.8,5.6-14.2,10.9-22.2,11.4c-7.9,0.5-16.4-7.4-19.2-16.7c-1.3-4.2-1.8-11.5-1.1-15.9
					c1.2-6.9,7.7-12.9,13.3-12.2c3.8,0.5,7.3,4.2,7.9,9.1c0.6,3.8-1.3,10.7-5.4,9.4c-1.6-0.5-2.8-2.4-4.6-2.5
					c-1.7-0.1-3.4,1.6-3.8,3.8c-0.5,2.6,0.8,4.6,2.3,6.1c3,2.9,7.3,2.8,10.6,0.7c4.2-2.8,7.6-8.7,7.3-14.8c-0.4-9.8-6-16.5-13.7-18
					c-9.4-1.8-20.2,8-21.1,20.2C671.5,516.7,676.4,530,685.1,537.3z M769.7,500.5c6,2.4,10.7,8.8,13.9,14.5c1.3,2.4,2.2,5.9,2.1,9
					c-0.1,3.9-2.6,6.5-5.6,5c-1.1-0.6-2.3-1.4-3.1-2.5C772.5,520.2,769.3,510.4,769.7,500.5z"/>
				<path class="st2" d="M334.8,527.8c11.9,8.9,25.9,10.2,38.9,4.7c10.4-4.5,19-12.8,27.7-20.7c8.5-7.8,17.4-14.4,27-19.4
					c5.1-2.7,8.5-3.7,14.1-4.1c4.5-0.3,10.3,1.9,13,5.5c-7.6,2.8-14.4,12.3-16.6,17.4c-0.9,2-1.4,4.1-1.9,6.3
					c-1.8,7.7,0.5,16.5,7.2,18.7c5.3,1.7,10.9-3.3,14.2-8.1c4.8-7,7.5-16.3,6.9-29.5c5.5,1.8,11.1,5.9,15.4,9.7
					c10.4,9.2,20.8,21.7,32.1,29c10.2,6.5,20.5,7,30.2-1.2c8.7-7.3,13.6-20.6,12.5-33.9c-1-12.2-11.8-22-21.1-20.2
					c-7.7,1.5-13.3,8.2-13.7,18c-0.3,6.1,3.1,12,7.3,14.8c3.3,2.2,7.7,2.3,10.6-0.7c1.5-1.5,2.8-3.5,2.3-6.1
					c-0.4-2.1-2.1-3.8-3.8-3.8c-1.8,0.1-3,1.9-4.6,2.5c-4,1.3-5.9-5.6-5.4-9.4c0.8-4.9,4.1-8.6,7.9-9.1c5.5-0.7,12,5.3,13.3,12.2
					c0.9,4.4,0.3,11.6-1.1,15.9c-2.9,9.3-11.4,17.2-19.2,16.7c-7.9-0.5-15.4-5.8-22.2-11.4c-7.1-5.8-17.6-16.2-24.5-22.3
					c-3.4-3-12.9-8.2-17.8-7.9c-1.2-0.7-4.9-6.9-11.6-9.4c-13.3-4.9-25.2,0.4-36.9,8.2c-9.5,6.3-17.5,15.5-26.6,22.7
					c-10.5,8.3-22.1,15.7-34.5,14.3c-11.6-1.3-17.5-6.6-22.3-17c-3.2-7-1.7-20.4,3.9-25.1c6.3-5.2,13.5-2,16.8,4.5
					c1.3,2.7,2,13.5-2.6,10.4c-3.1-2-8.2-1.4-8.6,3.8c-0.5,6.5,5.2,9.9,9.5,8.5c4.3-1.3,7.5-4,9-9.5c2.3-8.8-1.1-22.1-11.2-26.7
					c-10.2-4.7-20.4,0.5-24.1,13.8C320.4,503.1,324.9,520.3,334.8,527.8z M451.1,525c-0.8,1.1-1.9,2-3.1,2.5c-3.1,1.5-5.5-1.1-5.6-5
					c-0.1-3.1,0.8-6.6,2.1-9c3.2-5.6,7.8-12,13.9-14.5C458.7,509,455.5,518.8,451.1,525z"/>
				<path class="st2" d="M648.6,496.8c-2.8-1.8-7.1-1.9-9.6,1.3c-2.5,3.1-4,8.6-4,13.9c-0.1,5.4,1.6,11.9,4.7,13.7
					c1.8,1,4-0.3,4.5-3.7c0.6-3.4-0.6-6.2-2.4-7.6c-2.5-1.9-2.6-8.7,0-10.9c1.4-1.2,2.7-1.3,4-0.7c2.3,1.2,4.2,5.1,4.8,9.7
					c0.5,4.1,0.1,8.7-1,12.4c-1.7,6-5.1,10.2-9,10.4c-2.6,0.2-6.1-1.1-8.4-2.9c-4-3.2-7.6-7.9-10.7-13.5c-1.5-2.8-2.9-5.8-4.1-8.9
					c-1-2.4-4.3-13.3-4.5-12.7c-0.1,0.4-2,6-2.5,7.3c-4.3,12-9.6,21.9-17,27.8c-2.3,1.8-5.8,3.1-8.4,2.9c-3.8-0.2-7.2-4.4-8.9-10.4
					c-1.1-3.7-1.5-8.3-0.9-12.4c0.6-4.6,2.5-8.6,4.8-9.7c1.2-0.6,2.6-0.5,4,0.7c2.5,2.2,2.3,8.9-0.1,10.9c-1.8,1.4-2.9,4.2-2.4,7.6
					c0.5,3.4,2.7,4.7,4.5,3.7c3.1-1.7,4.9-8.3,4.7-13.7c-0.1-5.3-1.6-10.7-4-13.9c-2.5-3.2-6.7-3.1-9.6-1.3c-2,1.3-3.9,3.8-5.1,7.1
					c-2.3,6.3-2.5,14.9-1.1,21.8c1.6,8.4,5.7,14.2,10.4,16.5c8,4,14.3-2,20.1-10.1c4.2-5.8,7.5-13.4,10.6-21c0.4-1,0.8-2,1-3.1
					c0.2,1,0.5,2.1,0.9,3.1c3.1,7.6,6.4,15.2,10.5,21c5.8,8.2,12.1,14.1,20,10.1c4.8-2.4,8.8-8.2,10.5-16.5c1.4-7,1.2-15.5-1.1-21.8
					C652.4,500.5,650.6,498.1,648.6,496.8z"/>
			</g>
		</g>
		<path class="st2" d="M-761,544.6"/>
	</g>
	<text transform="matrix(1.4372 0 0 1 216.4462 660.9941)" class="st2 st3 st4">AYLA COUTURE</text>
	<path class="st2" d="M723.5,753.4"/>
	<g>
		<rect x="285.9" y="695.7" class="st2" width="661.8" height="2"/>
		<text transform="matrix(1 0 0 1 951.7643 700.825)" class="st3 st4">.</text>
		<text transform="matrix(1 0 0 1 267.3388 701.2219)" class="st3 st4">.</text>
	</g>
	<text transform="matrix(1.6256 0 0 1 369.6375 760.5696)" class="st5 st6">Muhamed Nur</text>
	<g>
		
			<rect x="610.1" y="430.7" transform="matrix(-1 -1.224647e-16 1.224647e-16 -1 1225.4015 934.926)" class="st2" width="5.1" height="73.5"/>
		
			<image style="overflow:visible;" width="512" height="512" xlink:href="../../../Downloads/dummy_6602752.png"  transform="matrix(0.3172 0 0 0.2783 530.9986 317.8459)">
		</image>
		<text transform="matrix(1 0 0 1 601.2302 333.2996)" class="st3 st7">.</text>
	</g>
</g>
</svg>
